<svg width="30" height="30" viewBox="0 0 30 30" fill="none" xmlns="http://www.w3.org/2000/svg">
<path d="M15.9127 14.341V14.3003C15.9042 14.3141 15.8952 14.3278 15.8862 14.341H15.9127Z" fill="black"/>
<path d="M26.0696 2.46973H3.78111C2.71431 2.46973 1.84912 3.31428 1.84912 4.35514V26.9045C1.84912 27.9448 2.71431 28.7894 3.78111 28.7894H26.0696C27.138 28.7894 28.0031 27.9443 28.0031 26.9045V4.35514C28.0031 3.31375 27.1374 2.46973 26.0696 2.46973ZM9.77656 24.5026H5.82633V12.6181H9.77656V24.5026ZM7.80171 10.9946H7.77525C6.45022 10.9946 5.59297 10.0818 5.59297 8.94142C5.59297 7.77567 6.47668 6.88826 7.82764 6.88826C9.17913 6.88826 10.0104 7.77567 10.0369 8.94142C10.0369 10.0818 9.1786 10.9946 7.80171 10.9946ZM24.0212 24.5026H20.0709V18.1431C20.0709 16.5461 19.4994 15.456 18.0702 15.456C16.979 15.456 16.3292 16.191 16.0429 16.9011C15.9387 17.1546 15.9133 17.5091 15.9133 17.8647V24.5021H11.9631C11.9631 24.5021 12.0149 13.7314 11.9631 12.6175H15.9133V14.2998C16.4382 13.4901 17.377 12.3371 19.474 12.3371C22.0728 12.3371 24.0217 14.0362 24.0217 17.6869L24.0212 24.5026Z" fill="black"/>
</svg>
