<svg width="30" height="30" viewBox="0 0 30 30" fill="none" xmlns="http://www.w3.org/2000/svg">
<path d="M15.9124 14.341V14.3003C15.904 14.3141 15.895 14.3278 15.886 14.341H15.9124Z" fill="white"/>
<path d="M26.0693 2.46973H3.78086C2.71406 2.46973 1.84888 3.31428 1.84888 4.35514V26.9045C1.84888 27.9448 2.71406 28.7894 3.78086 28.7894H26.0693C27.1377 28.7894 28.0029 27.9443 28.0029 26.9045V4.35514C28.0029 3.31375 27.1372 2.46973 26.0693 2.46973ZM9.77631 24.5026H5.82609V12.6181H9.77631V24.5026ZM7.80146 10.9946H7.77501C6.44997 10.9946 5.59273 10.0818 5.59273 8.94142C5.59273 7.77567 6.47643 6.88826 7.82739 6.88826C9.17888 6.88826 10.0102 7.77567 10.0367 8.94142C10.0367 10.0818 9.17835 10.9946 7.80146 10.9946ZM24.0209 24.5026H20.0707V18.1431C20.0707 16.5461 19.4992 15.456 18.0699 15.456C16.9788 15.456 16.329 16.191 16.0427 16.9011C15.9384 17.1546 15.913 17.5091 15.913 17.8647V24.5021H11.9628C11.9628 24.5021 12.0147 13.7314 11.9628 12.6175H15.913V14.2998C16.438 13.4901 17.3767 12.3371 19.4738 12.3371C22.0725 12.3371 24.0215 14.0362 24.0215 17.6869L24.0209 24.5026Z" fill="white"/>
</svg>
